<?xml version="1.0" encoding="UTF-8" ?>
<!DOCTYPE svg PUBLIC "-//W3C//DTD SVG 1.1//EN" "http://www.w3.org/Graphics/SVG/1.1/DTD/svg11.dtd">
<svg width="64pt" height="64pt" viewBox="0 0 64 64" version="1.1" xmlns="http://www.w3.org/2000/svg">
<g id="#000000ff">
<path fill="#000000" opacity="1.00" d=" M 3.89 14.06 C 6.42 8.25 12.55 4.19 18.89 4.08 C 26.59 3.86 34.30 4.07 42.00 4.00 C 42.00 10.00 42.00 16.00 42.00 22.00 C 35.06 21.85 28.09 22.30 21.16 21.81 C 18.81 19.31 20.44 15.11 20.01 11.93 C 17.48 12.04 14.89 11.92 12.40 12.52 C 10.13 13.43 8.20 15.00 6.01 16.09 C 4.88 15.86 4.17 15.19 3.89 14.06 M 30.38 9.36 C 27.92 10.38 27.13 14.01 29.19 15.81 C 31.02 17.83 34.60 17.10 35.62 14.62 C 37.29 11.54 33.49 7.68 30.38 9.36 Z" />
<path fill="#000000" opacity="1.00" d=" M 46.00 3.90 C 47.89 4.32 50.61 3.23 51.81 5.19 C 52.16 10.40 52.17 15.67 51.79 20.87 C 50.53 22.72 47.88 21.68 46.00 22.10 C 46.00 16.04 46.00 9.97 46.00 3.90 Z" />
<path fill="#000000" opacity="1.00" d=" M 25.44 26.00 C 29.73 26.11 34.02 25.78 38.30 26.09 C 39.35 32.68 39.05 39.44 39.68 46.09 C 39.73 49.77 40.88 54.15 38.15 57.19 C 35.12 60.90 28.78 60.88 25.79 57.12 C 23.73 54.93 24.01 51.75 24.14 48.98 C 24.62 41.33 25.02 33.67 25.44 26.00 Z" />
</g>
</svg>
