<?xml version="1.0" encoding="UTF-8" ?>
<!DOCTYPE svg PUBLIC "-//W3C//DTD SVG 1.1//EN" "http://www.w3.org/Graphics/SVG/1.1/DTD/svg11.dtd">
<svg width="100pt" height="100pt" viewBox="0 0 100 100" version="1.1" xmlns="http://www.w3.org/2000/svg">
<g id="#000000ff">
<path fill="#000000" opacity="1.00" d=" M 64.84 6.75 C 68.23 5.87 73.06 5.33 74.94 9.06 C 76.67 13.12 75.79 17.71 75.99 22.00 C 57.66 22.00 39.33 22.00 21.00 22.00 C 17.76 21.83 14.70 22.95 11.72 24.08 C 15.78 20.98 20.48 18.75 25.45 17.55 C 38.60 14.02 51.69 10.28 64.84 6.75 Z" />
<path fill="#000000" opacity="1.00" d=" M 16.39 26.62 C 18.17 25.99 20.09 26.02 21.96 25.98 C 40.95 26.03 59.95 25.98 78.94 26.00 C 83.87 25.73 88.76 28.60 90.86 33.07 C 92.12 35.50 91.99 38.32 92.02 40.98 C 91.92 54.35 92.11 67.72 91.94 81.09 C 91.92 86.83 86.84 91.93 81.09 91.94 C 60.69 92.07 40.28 91.98 19.88 91.99 C 13.80 92.37 8.03 87.21 8.06 81.06 C 7.92 67.05 8.04 53.04 8.00 39.03 C 7.77 33.66 11.31 28.38 16.39 26.62 M 75.22 54.32 C 71.62 55.51 70.87 60.90 74.02 63.01 C 76.76 65.25 81.36 63.44 81.90 59.96 C 82.81 56.30 78.67 52.81 75.22 54.32 Z" />
</g>
</svg>
