<?xml version="1.0" encoding="UTF-8" ?>
<!DOCTYPE svg PUBLIC "-//W3C//DTD SVG 1.1//EN" "http://www.w3.org/Graphics/SVG/1.1/DTD/svg11.dtd">
<svg width="100pt" height="100pt" viewBox="0 0 100 100" version="1.1" xmlns="http://www.w3.org/2000/svg">
<g id="#000000ff">
<path fill="#000000" opacity="1.00" d=" M 12.21 8.28 C 14.79 7.80 17.43 8.01 20.04 7.99 C 41.70 8.01 63.35 7.99 85.00 8.00 C 87.86 7.72 90.90 9.33 91.70 12.20 C 92.38 15.91 91.65 19.72 92.29 23.45 C 93.43 30.48 95.35 38.02 92.19 44.80 C 91.68 58.53 92.23 72.33 91.94 86.08 C 92.08 89.68 88.53 92.41 85.09 92.00 C 62.05 92.02 39.01 91.97 15.97 92.02 C 13.81 92.02 11.33 91.98 9.76 90.23 C 8.00 88.65 7.98 86.16 7.98 83.98 C 8.04 71.64 7.96 59.29 8.03 46.95 C 8.15 44.54 6.86 42.42 6.27 40.15 C 5.11 32.02 8.63 24.14 7.99 16.01 C 7.59 12.87 8.88 9.18 12.21 8.28 M 15.20 14.09 C 12.88 15.13 14.34 18.83 16.77 17.90 C 19.14 16.88 17.64 13.15 15.20 14.09 M 21.17 14.10 C 18.86 15.20 20.41 18.87 22.84 17.89 C 25.12 16.76 23.60 13.16 21.17 14.10 M 27.19 14.10 C 24.88 15.12 26.34 18.83 28.74 17.87 C 31.19 16.93 29.62 13.13 27.19 14.10 M 10.07 38.13 C 10.17 40.51 11.23 43.57 13.96 43.92 C 16.22 44.39 18.23 43.13 20.04 41.97 C 19.95 35.98 20.02 29.99 20.00 24.00 C 17.25 24.00 14.50 24.00 11.74 24.00 C 10.97 28.67 9.88 33.36 10.07 38.13 M 24.00 24.00 C 23.98 30.00 24.05 35.99 23.96 41.99 C 26.87 44.54 31.15 44.53 34.04 41.96 C 33.95 35.98 34.02 29.99 34.00 24.00 C 30.67 24.00 27.33 24.00 24.00 24.00 M 38.00 24.00 C 37.98 30.00 38.05 35.99 37.96 41.99 C 40.87 44.53 45.14 44.53 48.04 41.97 C 47.95 35.98 48.02 29.99 48.00 24.00 C 44.67 24.00 41.33 24.00 38.00 24.00 M 52.00 24.00 C 51.98 29.99 52.05 35.99 51.96 41.98 C 54.86 44.54 59.14 44.53 62.04 41.97 C 61.95 35.98 62.02 29.99 62.00 24.00 C 58.67 24.00 55.33 24.00 52.00 24.00 M 66.00 24.00 C 65.98 30.00 66.05 35.99 65.96 41.98 C 68.86 44.54 73.13 44.52 76.04 41.98 C 75.95 35.99 76.02 29.99 76.00 24.00 C 72.67 24.00 69.33 24.00 66.00 24.00 M 80.00 24.00 C 79.98 29.99 80.05 35.99 79.96 41.98 C 82.54 44.23 87.75 45.25 89.22 41.26 C 91.05 35.63 89.01 29.66 88.25 24.00 C 85.50 24.00 82.75 24.00 80.00 24.00 M 20.00 56.00 C 20.00 66.67 20.00 77.33 20.00 88.00 C 26.00 88.00 32.00 88.00 38.00 88.00 C 38.00 77.33 38.00 66.67 38.00 56.00 C 32.00 56.00 26.00 56.00 20.00 56.00 M 48.00 56.00 C 48.00 64.00 48.00 72.00 48.00 80.00 C 58.67 80.00 69.33 80.00 80.00 80.00 C 80.00 72.00 80.00 64.00 80.00 56.00 C 69.33 56.00 58.67 56.00 48.00 56.00 Z" />
</g>
</svg>
