<?xml version="1.0" encoding="UTF-8" ?>
<!DOCTYPE svg PUBLIC "-//W3C//DTD SVG 1.1//EN" "http://www.w3.org/Graphics/SVG/1.1/DTD/svg11.dtd">
<svg width="96pt" height="96pt" viewBox="0 0 96 96" version="1.1" xmlns="http://www.w3.org/2000/svg">
<g id="#000000ff">
<path fill="#000000" opacity="1.00" d=" M 5.49 9.52 C 7.54 5.81 11.80 3.77 15.98 4.00 C 24.36 4.03 32.75 3.91 41.13 4.06 C 46.93 3.93 52.07 9.13 51.94 14.91 C 52.08 39.27 51.95 63.64 52.01 88.01 C 39.64 87.94 27.27 88.10 14.90 87.94 C 8.68 88.11 3.29 82.09 4.08 75.92 C 4.35 70.80 9.07 66.91 13.93 66.23 C 20.58 65.54 27.29 66.44 33.94 65.80 C 36.64 65.14 36.59 60.76 33.87 60.19 C 27.91 59.75 21.92 60.07 15.95 60.02 C 11.55 59.94 7.50 61.85 3.96 64.29 C 4.04 49.53 4.00 34.76 3.98 20.00 C 4.06 16.49 3.59 12.66 5.49 9.52 Z" />
<path fill="#000000" opacity="1.00" d=" M 57.99 15.99 C 68.65 16.13 79.33 15.75 89.97 16.17 C 93.13 17.28 91.56 20.87 90.76 23.09 C 92.24 24.98 91.93 27.17 91.00 29.22 C 92.17 31.20 91.88 33.20 91.00 35.23 C 92.15 37.20 91.90 39.20 90.99 41.23 C 92.13 43.20 91.92 45.19 91.00 47.22 C 92.16 49.21 91.87 51.19 91.00 53.23 C 92.18 55.21 91.87 57.20 91.00 59.23 C 92.16 61.19 91.90 63.20 91.00 65.22 C 92.14 67.19 91.91 69.20 90.99 71.22 C 92.17 73.18 91.90 75.20 91.01 77.22 C 91.98 79.00 91.93 80.74 91.33 82.62 C 92.40 84.59 91.95 88.01 89.13 87.88 C 78.76 88.19 68.37 87.89 57.99 88.01 C 58.00 64.00 58.00 40.00 57.99 15.99 Z" />
</g>
</svg>
