<?xml version="1.0" encoding="UTF-8" ?>
<!DOCTYPE svg PUBLIC "-//W3C//DTD SVG 1.1//EN" "http://www.w3.org/Graphics/SVG/1.1/DTD/svg11.dtd">
<svg width="100pt" height="100pt" viewBox="0 0 100 100" version="1.1" xmlns="http://www.w3.org/2000/svg">
<g id="#000000ff">
<path fill="#000000" opacity="1.00" d=" M 42.26 8.29 C 43.36 7.44 44.34 5.95 45.88 6.04 C 52.45 11.44 57.68 18.36 64.30 23.70 C 74.56 28.56 85.17 33.55 93.15 41.86 C 96.59 45.35 99.02 49.78 100.00 54.59 L 100.00 79.26 C 99.16 80.91 98.25 82.78 96.40 83.48 C 93.06 85.11 88.57 82.73 88.14 79.02 C 87.75 72.62 89.71 66.39 89.92 60.02 C 90.22 56.69 87.85 54.06 86.13 51.48 C 74.31 63.21 62.59 75.05 50.81 86.83 C 48.80 88.94 45.96 90.37 42.98 89.93 C 40.15 89.79 38.04 87.68 36.14 85.81 C 26.38 75.92 16.48 66.17 6.70 56.29 C 3.37 53.23 3.06 47.52 6.24 44.24 C 9.61 40.52 13.34 37.16 16.83 33.55 C 12.33 29.52 10.05 22.18 14.17 17.08 C 19.59 10.59 28.63 9.33 36.53 8.32 C 34.58 10.24 32.84 12.79 29.96 13.31 C 25.12 14.61 19.43 15.95 16.72 20.61 C 14.62 24.85 17.64 29.59 21.34 31.73 C 30.78 37.43 42.21 37.38 52.85 38.24 C 53.12 38.48 53.65 38.97 53.92 39.21 C 54.41 43.51 48.51 41.47 46.02 41.98 C 47.42 43.52 48.69 45.61 50.96 45.90 C 54.86 46.75 58.73 42.90 57.90 39.00 C 57.50 36.22 54.92 34.01 52.10 34.08 C 42.04 33.67 31.44 33.16 22.54 27.89 C 29.09 21.33 35.73 14.87 42.26 8.29 M 72.19 31.99 C 78.34 38.42 85.04 44.34 90.87 51.06 C 97.19 58.91 91.72 69.14 92.08 78.04 C 91.76 80.54 96.13 80.60 95.91 78.10 C 96.11 71.07 95.99 64.04 95.97 57.01 C 96.03 52.30 93.45 48.08 90.35 44.74 C 85.28 39.26 78.76 35.41 72.19 31.99 Z" />
</g>
</svg>
