<?xml version="1.0" encoding="UTF-8" ?>
<!DOCTYPE svg PUBLIC "-//W3C//DTD SVG 1.1//EN" "http://www.w3.org/Graphics/SVG/1.1/DTD/svg11.dtd">
<svg width="90pt" height="90pt" viewBox="0 0 90 90" version="1.1" xmlns="http://www.w3.org/2000/svg">
<g id="#000000ff">
<path fill="#000000" opacity="1.00" d=" M 5.03 11.87 C 2.35 11.09 2.32 6.92 5.01 6.15 C 9.53 5.83 15.69 5.06 18.17 9.89 C 20.02 14.44 21.03 19.29 22.51 23.97 C 42.04 24.08 61.58 23.90 81.11 24.06 C 83.08 23.93 84.56 26.25 83.79 28.04 C 81.32 37.37 78.74 46.68 76.19 55.99 C 75.27 60.13 71.26 63.21 67.02 62.98 C 56.67 63.04 46.32 62.97 35.97 63.01 C 33.50 63.07 30.89 62.71 28.94 61.06 C 26.11 58.98 25.53 55.31 24.56 52.18 C 20.62 38.84 16.79 25.47 12.75 12.16 C 10.18 11.99 7.60 12.06 5.03 11.87 Z" />
<path fill="#000000" opacity="1.00" d=" M 34.16 69.30 C 38.54 67.63 43.35 72.42 41.71 76.81 C 40.59 81.00 34.64 82.42 31.73 79.20 C 28.59 76.29 30.02 70.43 34.16 69.30 Z" />
<path fill="#000000" opacity="1.00" d=" M 64.20 69.28 C 68.57 67.67 73.32 72.41 71.72 76.78 C 70.62 80.97 64.69 82.42 61.77 79.24 C 58.57 76.32 60.02 70.39 64.20 69.28 Z" />
</g>
</svg>
