<?xml version="1.0" encoding="UTF-8" ?>
<!DOCTYPE svg PUBLIC "-//W3C//DTD SVG 1.1//EN" "http://www.w3.org/Graphics/SVG/1.1/DTD/svg11.dtd">
<svg width="90pt" height="90pt" viewBox="0 0 90 90" version="1.1" xmlns="http://www.w3.org/2000/svg">
<g id="#000000ff">
<path fill="#000000" opacity="1.00" d=" M 75.07 5.96 C 80.01 10.93 84.87 16.05 90.00 20.79 L 90.00 20.79 C 85.23 26.08 79.94 30.90 75.00 36.03 C 74.98 33.02 75.04 30.02 74.97 27.02 C 72.41 26.94 69.84 27.09 67.27 26.94 C 65.13 22.82 61.57 19.57 57.37 17.64 C 57.28 16.98 57.11 15.67 57.02 15.02 C 63.00 14.95 68.99 15.06 74.98 14.98 C 75.06 11.97 74.92 8.96 75.07 5.96 Z" />
<path fill="#000000" opacity="1.00" d=" M 39.02 15.01 C 43.01 14.99 46.99 14.99 50.98 15.01 C 51.06 17.27 50.91 19.53 51.07 21.79 C 57.41 23.08 63.19 28.41 63.19 35.19 C 59.76 35.25 56.33 35.13 52.90 35.25 C 51.47 29.70 43.80 27.98 39.63 31.57 C 37.57 33.46 38.10 37.26 40.83 38.23 C 46.75 40.71 53.72 40.11 59.19 43.78 C 64.78 47.40 65.26 55.57 62.23 61.00 C 59.97 65.06 55.54 67.39 51.11 68.26 C 50.85 70.49 51.09 72.75 50.99 74.99 C 47.00 75.01 43.01 75.00 39.02 74.99 C 38.88 72.76 39.22 70.50 38.84 68.30 C 32.15 67.35 25.80 61.95 25.92 54.80 C 29.57 54.81 33.22 54.75 36.87 54.83 C 37.98 60.26 45.08 61.16 49.44 59.45 C 52.47 58.57 54.01 53.92 50.97 52.11 C 44.84 48.85 37.02 50.06 31.37 45.65 C 26.64 42.10 25.78 35.15 28.05 29.96 C 29.94 25.55 34.38 22.79 38.92 21.76 C 39.11 19.52 38.93 17.26 39.02 15.01 Z" />
<path fill="#000000" opacity="1.00" d=" M 0.05 69.01 C 4.98 64.00 9.91 58.97 14.99 54.12 C 15.03 57.07 14.96 60.03 15.01 62.99 C 17.28 63.06 19.56 62.90 21.83 63.06 C 24.05 67.70 28.28 71.04 32.99 72.92 C 32.99 73.44 32.99 74.47 32.99 74.99 C 27.00 75.02 21.01 74.98 15.02 75.01 C 14.96 77.99 15.03 80.97 14.98 83.95 C 10.02 78.96 4.99 74.03 0.05 69.01 Z" />
</g>
</svg>
