<?xml version="1.0" encoding="UTF-8" ?>
<!DOCTYPE svg PUBLIC "-//W3C//DTD SVG 1.1//EN" "http://www.w3.org/Graphics/SVG/1.1/DTD/svg11.dtd">
<svg width="96pt" height="96pt" viewBox="0 0 96 96" version="1.1" xmlns="http://www.w3.org/2000/svg">
<g id="#000000ff">
<path fill="#000000" opacity="1.00" d=" M 45.49 12.50 C 47.07 11.23 48.96 11.24 50.55 12.49 C 60.83 18.90 71.03 25.45 81.32 31.85 C 82.75 32.86 84.87 33.89 84.57 36.01 C 84.16 37.88 82.15 38.69 80.76 39.74 C 70.47 46.06 60.37 52.68 50.09 59.01 C 48.59 60.18 46.74 59.70 45.32 58.68 C 34.90 52.06 24.45 45.47 14.00 38.90 C 12.75 38.03 10.80 36.76 11.55 34.94 C 11.71 33.52 13.27 33.00 14.23 32.19 C 24.67 25.67 35.05 19.03 45.49 12.50 Z" />
<path fill="#000000" opacity="1.00" d=" M 12.60 50.24 C 9.99 48.41 12.34 45.57 14.20 44.30 C 23.02 49.98 31.97 55.46 40.78 61.16 C 42.72 62.35 44.65 63.71 46.92 64.18 C 49.52 64.67 51.88 63.22 54.00 61.93 C 63.27 56.01 72.60 50.20 81.86 44.29 C 83.66 45.65 86.01 48.44 83.36 50.27 C 74.55 56.23 65.35 61.62 56.44 67.43 C 53.67 69.07 51.14 71.25 48.02 72.19 C 46.46 71.86 45.14 70.93 43.81 70.12 C 33.47 63.40 22.86 57.07 12.60 50.24 Z" />
<path fill="#000000" opacity="1.00" d=" M 11.82 61.91 C 10.18 59.52 13.68 55.59 16.01 57.84 C 25.24 63.65 34.43 69.53 43.70 75.29 C 46.26 77.06 49.71 77.10 52.28 75.33 C 62.17 69.18 71.98 62.91 81.81 56.68 C 82.78 57.76 84.17 58.58 84.62 60.04 C 84.71 62.47 82.22 63.41 80.58 64.61 C 70.89 70.60 61.33 76.78 51.65 82.78 C 49.44 84.33 46.51 84.31 44.32 82.74 C 35.71 77.38 27.16 71.90 18.56 66.52 C 16.27 65.06 13.79 63.82 11.82 61.91 Z" />
</g>
</svg>
