<?xml version="1.0" encoding="UTF-8" ?>
<!DOCTYPE svg PUBLIC "-//W3C//DTD SVG 1.1//EN" "http://www.w3.org/Graphics/SVG/1.1/DTD/svg11.dtd">
<svg width="96pt" height="96pt" viewBox="0 0 96 96" version="1.1" xmlns="http://www.w3.org/2000/svg">
<g id="#000000ff">
<path fill="#000000" opacity="1.00" d=" M 4.00 16.89 C 3.71 14.55 5.38 12.00 7.91 12.06 C 21.95 11.89 36.01 12.08 50.06 11.98 C 52.12 11.90 54.73 12.09 55.60 14.34 C 56.40 17.48 55.89 20.79 55.99 24.00 C 62.29 24.22 68.65 23.50 74.90 24.42 C 80.66 25.72 83.14 31.56 85.99 36.07 C 88.47 40.44 92.29 44.57 92.00 49.93 C 91.91 56.24 92.24 62.58 91.83 68.87 C 91.18 72.59 86.71 71.98 83.92 72.09 C 83.00 75.12 81.82 78.24 79.33 80.35 C 74.67 84.79 66.87 85.15 61.78 81.24 C 58.64 79.11 57.03 75.55 56.07 72.02 C 50.69 71.99 45.31 71.99 39.93 72.02 C 39.06 74.86 38.05 77.80 35.81 79.89 C 31.23 84.71 23.08 85.31 17.82 81.27 C 14.68 79.16 13.07 75.61 12.07 72.09 C 9.79 71.83 7.03 72.54 5.18 70.80 C 3.83 69.62 4.08 67.65 3.98 66.04 C 4.03 49.66 3.97 33.27 4.00 16.89 M 56.00 32.00 C 56.06 42.83 55.88 53.66 56.09 64.49 C 57.93 63.21 59.14 61.30 60.65 59.69 C 64.90 55.56 71.94 54.85 77.00 57.92 C 79.93 59.40 81.25 62.66 83.91 64.49 C 84.05 59.99 84.02 55.48 84.01 50.97 C 84.25 46.43 80.54 43.15 78.61 39.37 C 76.82 36.96 75.88 33.38 72.92 32.20 C 67.30 31.69 61.64 32.15 56.00 32.00 M 24.20 64.28 C 20.01 65.40 18.57 71.35 21.79 74.26 C 24.73 77.43 30.63 75.94 31.72 71.76 C 33.30 67.39 28.55 62.67 24.20 64.28 M 68.21 64.28 C 64.01 65.38 62.56 71.34 65.78 74.25 C 68.72 77.43 74.64 75.94 75.72 71.75 C 77.30 67.39 72.56 62.68 68.21 64.28 Z" />
</g>
</svg>
