<?xml version="1.0" encoding="UTF-8" ?>
<!DOCTYPE svg PUBLIC "-//W3C//DTD SVG 1.1//EN" "http://www.w3.org/Graphics/SVG/1.1/DTD/svg11.dtd">
<svg width="100pt" height="100pt" viewBox="0 0 100 100" version="1.1" xmlns="http://www.w3.org/2000/svg">
<g id="#000000ff">
<path fill="#000000" opacity="1.00" d=" M 69.27 0.00 L 71.21 0.00 C 77.16 9.56 82.34 19.60 87.77 29.47 C 78.54 35.30 66.56 35.30 56.56 31.53 C 55.33 30.95 53.63 30.57 53.31 29.02 C 54.01 26.73 55.31 24.69 56.46 22.61 C 60.81 15.12 64.80 7.42 69.27 0.00 Z" />
<path fill="#000000" opacity="1.00" d=" M 24.74 4.72 C 30.37 2.53 37.09 4.48 40.89 9.11 C 43.52 11.99 44.24 15.95 44.91 19.66 C 46.80 21.19 48.65 22.76 50.39 24.46 C 49.99 26.24 49.36 28.01 49.41 29.86 C 49.89 31.78 51.43 33.17 52.56 34.72 C 49.77 39.52 46.93 44.29 44.12 49.07 C 43.04 51.07 41.66 53.32 42.38 55.68 C 43.12 57.58 44.75 58.92 46.03 60.44 C 43.40 64.67 40.45 68.70 37.90 72.99 C 36.75 74.82 36.84 77.05 36.63 79.12 C 32.71 79.18 28.61 79.14 25.30 76.73 C 20.70 76.99 15.41 77.65 11.63 74.39 C 8.65 72.18 7.81 68.40 7.04 64.99 C 3.63 62.74 0.70 59.62 0.00 55.45 L 0.00 52.56 C 0.58 49.71 2.08 47.19 3.77 44.86 C 4.24 39.07 2.71 32.84 5.54 27.47 C 7.13 24.37 7.52 20.86 8.79 17.65 C 10.15 14.39 13.56 12.88 16.55 11.46 C 18.86 8.77 21.26 5.88 24.74 4.72 Z" />
<path fill="#000000" opacity="1.00" d=" M 46.38 53.38 C 49.54 47.39 53.18 41.65 56.58 35.80 C 65.49 38.82 75.24 38.87 84.15 35.89 C 87.74 42.00 91.34 48.10 94.84 54.26 C 90.23 59.62 82.65 60.48 76.04 61.14 C 66.68 61.65 56.66 61.37 48.30 56.66 C 47.25 56.01 45.57 54.79 46.38 53.38 Z" />
<path fill="#000000" opacity="1.00" d=" M 40.57 77.05 C 43.06 71.69 46.84 67.06 49.89 62.02 C 63.10 66.46 77.83 66.59 91.05 62.15 C 94.01 66.80 97.17 71.31 100.00 76.03 L 100.00 78.01 C 92.63 82.86 83.65 84.10 75.02 84.49 C 66.15 84.79 57.10 84.32 48.58 81.66 C 45.68 80.64 42.49 79.62 40.57 77.05 Z" />
<path fill="#000000" opacity="1.00" d=" M 25.43 81.83 C 29.31 82.99 33.37 83.16 37.39 83.30 C 38.33 87.26 39.75 91.28 43.02 93.93 C 45.03 95.36 45.78 97.61 45.64 100.00 L 18.68 100.00 C 18.38 98.73 18.00 97.44 18.10 96.12 C 19.71 93.47 22.77 92.06 24.25 89.33 C 25.18 86.95 25.15 84.34 25.43 81.83 Z" />
<path fill="#000000" opacity="1.00" d=" M 65.88 88.57 C 69.96 88.60 74.03 88.53 78.10 88.41 C 78.34 90.36 78.59 92.32 78.85 94.27 C 81.16 94.95 83.45 95.68 85.68 96.59 C 85.53 97.44 85.24 99.15 85.09 100.00 L 58.09 100.00 C 57.53 99.48 56.42 98.43 55.86 97.91 C 57.57 94.82 61.11 94.82 64.11 94.00 C 65.10 92.35 65.37 90.40 65.88 88.57 Z" />
</g>
</svg>
